<?xml version="1.0" encoding="UTF-8"?><svg id="a" xmlns="http://www.w3.org/2000/svg" width="72.82" height="72.82" viewBox="0 0 72.82 72.82"><defs><style>.b{fill:#fff;}.c{fill:#a4802d;}.d,.e{fill:#f8c134;}.e{opacity:.99;}.f{fill:#1a458a;}</style></defs><path class="b" d="m72.13,36.41c0,19.73-16,35.73-35.73,35.73S.68,56.14.68,36.41,16.68.68,36.41.68s35.73,16,35.73,35.72Z"/><circle class="f" cx="36.06" cy="36.23" r="24.54" transform="translate(-15.06 36.11) rotate(-45)"/><path class="c" d="m9.98,47.65c-.03-.1-.05-.17-.06-.22l.8.33c.04.19.06.32.07.39.05.53-.13.87-.56,1.03l-1.36.52c-.01.05-.01.22-.01.5,0,.28-.04.61-.11,1-.02.1-.04.2-.06.29l2.37-.9,1.05.8-3.66,1.39-1.04-.8c.16-.18.37-.46.63-.85.08-.16.14-.41.18-.74.01-.1.02-.25.03-.45l-.78.29-1.05-.83s.11-.08.19-.14c.27-.22.47-.42.6-.6.07-.1.14-.25.23-.48.04-.1.08-.2.11-.3.08.03.15.06.2.09.14.08.25.15.34.22.15.12.26.23.35.34,0,0,.03.03.06.08l1.32-.5c.17-.06.22-.21.16-.45Zm-1.81,1.08s0-.07-.03-.14c-.05-.14-.1-.24-.15-.3-.01,0-.02.01-.03.02,0,.08-.03.19-.09.35-.02.05-.05.12-.11.22l.4-.15Z"/><path class="c" d="m12.94,52.82c.05.12.07.22.08.29.02.23-.05.4-.22.53-.05.04-.09.06-.11.07-.09.04-.33.05-.71.02-.38-.03-.72.08-1.01.32-.23.18-.32.56-.29,1.12l.13.75s.09.04.12.04c.1.01.2-.02.3-.09.19-.14.34-.42.47-.85.05-.19.15-.33.28-.43.19-.14.45-.19.78-.15.1.01.25.05.44.11,0-.02,0-.04-.01-.06-.03-.14-.03-.27,0-.38,0-.05.03-.08.05-.1.01,0,.03,0,.05,0l1.07.22c-.07.13-.11.24-.13.32-.05.25,0,.49.16.7.12.16.28.28.5.36.21.09.39.11.54.06-.06.02-.12.04-.17.06-.13.03-.25.04-.37.04-.02,0-.1-.02-.23-.05l-.2-.04c.01.06.02.12.03.18.02.23.01.44-.04.62-.03.11-.08.19-.13.23l-1.99,1.48-1.17-.54,2.28-1.68c.16-.12.2-.35.12-.69-.02-.09-.07-.21-.14-.36-.02-.03-.06-.1-.12-.21-.02-.03-.07-.01-.15.04-.19.14-.39.47-.6,1-.05.12-.12.21-.22.28-.2.15-.51.22-.94.2-.36-.01-.71-.07-1.04-.16-.11-.04-.27-.09-.49-.16-.02-.03-.05-.18-.08-.46-.11-.9.03-1.51.44-1.81.15-.11.44-.17.85-.17.42,0,.69-.04.81-.14.16-.12.21-.29.14-.51-.02-.05-.05-.13-.09-.24l1,.22Z"/><path class="c" d="m16.8,58.24l-1.53-1.33,1.17-.07,1.75,1.52-2.57,2.96-1.3-.22,2.48-2.85Z"/><path class="c" d="m19.77,59.28l2,1.38-2.2,3.18-1.5-.15s-.06-.05-.11-.09c-.16-.15-.29-.32-.41-.51-.07-.11-.11-.26-.13-.47,0-.09.01-.19.02-.28l.91-.03c-.05.08-.08.14-.1.18-.06.15-.06.28,0,.38.09.18.18.3.29.38.03.02.05.02.05,0l1.79-2.58-1.67-1.15,1.06-.27Z"/><path class="c" d="m20.44,59.03c.07.04.21.07.4.06.07,0,.16,0,.27-.02-.18.05-.32.08-.43.1-.33.05-.59.04-.78-.05-.03-.01-.07-.04-.12-.06-.2-.12-.41-.31-.61-.56-.08-.12-.15-.24-.22-.36.08-.03.22-.06.39-.1.28-.06.6-.09.95-.08.51,0,.93.11,1.27.31.5.29.94.8,1.3,1.52.04.08.1.2.17.36l-.98.2c.01-.13,0-.23,0-.31-.05-.26-.19-.54-.42-.82-.33-.42-.65-.71-.95-.89-.2-.12-.4-.2-.6-.25-.07-.01-.15-.03-.24-.03.02.12.04.25.06.37.14.29.32.5.53.63Z"/><path class="c" d="m22.93,61.43c.14.14.23.25.29.33.18.27.23.5.16.69-.04.08-.2.2-.47.37-.25.15-.42.35-.52.6-.04.11-.08.25-.12.4-.08.33-.02.72.16,1.18.1.19.21.38.31.58.06-.03.11-.06.14-.08.11-.09.19-.21.25-.36.1-.26.13-.6.08-1.01-.03-.19,0-.39.09-.6.15-.38.46-.7.94-.97.42-.23.71-.32.87-.26l1.75.69-1.45,3.64-1.3.22,1.41-3.55-1.13-.45c-.06-.02-.1,0-.13.07,0,.11-.02.47-.04,1.07-.01.34-.05.61-.12.79l-.04.09s-.02.03-.03.04c-.3.52-.86.86-1.67,1.03-.14.02-.28.03-.42.05-.03-.01-.12-.13-.26-.34-.49-.71-.62-1.34-.41-1.87.07-.17.27-.36.6-.57.34-.21.53-.39.59-.54.09-.22.02-.41-.19-.59-.03-.02-.11-.08-.26-.18l.92-.47Z"/><path class="c" d="m28.88,63.62c.05-.01.11-.01.16,0,.15.03.32.14.49.32.16.17.23.26.21.27l-.83.45s-.02-.08-.03-.14c-.07-.2-.24-.32-.51-.38-.21-.04-.33,0-.35.12-.02.11.02.25.13.42.11.17.22.3.35.39.17.11.35.19.55.23.14.03.29.04.43.02.05,0,.11-.01.17-.03-.18.04-.39.12-.62.21-.58.22-.89.45-.94.69-.06.29.19.64.75,1.05.29.16.59.31.88.46l.65-3.19,1.26-.45-.72,3.5-1.95.65c-.06.02-.26-.05-.61-.22-1.02-.5-1.48-1-1.38-1.52,0,0,0-.02,0-.03.05-.24.27-.44.67-.59.13-.05.32-.09.58-.14-.6-.14-.93-.42-.98-.85,0-.02,0-.04,0-.08.04-.2.25-.43.64-.69.36-.24.69-.4.98-.47Z"/><path class="c" d="m34.34,65.22l-2.02-.13.89-.77,2.31.15-.26,3.91-1.17.61.25-3.77Z"/><path class="c" d="m38.02,69.3s-.15-.09-.3-.22c-.57-.48-.88-.96-.92-1.43-.06-.71.24-1.34.9-1.89.19-.16.3-.25.33-.25l-1.6.13.61-.88,4.05-.32.32,3.9-1.13.78c-.05-.06-.2-.27-.44-.64l-.75-1.18c-.19-.3-.46-.63-.82-.96-.17-.12-.34-.25-.51-.37-.04.08-.07.17-.11.26-.04.23-.05.45-.04.68.02.27.09.49.2.66.2.32.42.55.64.69.13.08.3.13.51.14l-.95.91Zm.67-3.85l.35.36c.16.17.27.28.33.34.03.04.21.24.53.62.07.08.17.19.29.33l-.14-1.76-1.36.11Z"/><path class="c" d="m39.56,62.55s-.05.1-.08.15c-.05.13-.08.23-.06.32.04.26.38.34,1,.24.26-.04.55-.2.86-.46.24-.21.46-.43.66-.69.05-.08.14-.19.25-.35-.06.12-.15.29-.27.51-.23.38-.52.72-.87,1.03-.46.4-.94.65-1.45.73-.32.05-.67,0-1.04-.16-.14-.09-.29-.18-.43-.28l1.43-1.05Z"/><path class="c" d="m43.36,63.8s.09-.06.14-.08c.15-.04.34-.03.58.06.22.07.32.12.31.14l-.53.78s-.05-.06-.09-.11c-.15-.14-.36-.17-.62-.1-.21.06-.29.15-.26.27.03.11.13.21.31.31.17.1.34.16.49.18.2.02.4,0,.59-.05.14-.04.27-.1.4-.18.04-.03.09-.07.13-.11-.14.13-.29.28-.46.47-.41.46-.58.81-.51,1.05.08.28.47.47,1.16.58.33,0,.66,0,1,0l-.9-3.13.91-.99.99,3.43-1.42,1.48s-.26.07-.64.08c-1.14.04-1.78-.2-1.93-.71,0,0-.01,0-.02-.02-.07-.24.04-.52.32-.83.09-.1.24-.23.45-.4-.6.16-1.02.06-1.26-.29,0-.01-.02-.04-.03-.08-.06-.2.02-.5.24-.91.21-.39.42-.68.65-.88Z"/><path class="c" d="m47.79,62.79c-.09.04-.17.06-.21.08l.25-.83c.18-.05.31-.08.38-.1.52-.1.88.05,1.07.46l.64,1.31c.05,0,.22,0,.5-.04.28-.03.61-.02,1,.02.11.01.21.02.3.04l-1.12-2.28.71-1.12,1.71,3.52-.7,1.11c-.19-.15-.5-.33-.9-.55-.17-.06-.42-.1-.76-.11-.1,0-.25,0-.46,0l.37.75-.73,1.12s-.09-.1-.16-.17c-.24-.25-.46-.43-.65-.54-.1-.06-.27-.12-.5-.19-.1-.03-.2-.06-.31-.08.03-.08.05-.15.08-.21.06-.14.13-.26.19-.36.11-.16.21-.28.31-.38,0,0,.03-.03.08-.07l-.62-1.27c-.08-.16-.23-.2-.47-.12Zm1.24,1.7s-.07,0-.14.04c-.13.07-.23.12-.29.17,0,.01.01.02.02.03.08-.01.2,0,.36.06.05.01.13.04.23.08l-.19-.39Z"/><path class="c" d="m52.99,59.47c.12-.05.22-.08.29-.09.23-.03.4.04.53.2.04.05.06.09.08.11.05.09.06.33.04.71-.02.38.09.71.34,1.01.19.22.57.31,1.13.26l.75-.15c.02-.05.04-.09.04-.12.01-.1-.02-.2-.1-.3-.14-.19-.43-.34-.86-.45-.19-.05-.33-.14-.43-.27-.15-.19-.2-.45-.17-.78,0-.1.04-.25.1-.45-.02,0-.04,0-.05.01-.14.03-.27.03-.38,0-.05,0-.08-.02-.1-.04,0-.01-.01-.03,0-.05l.2-1.08c.13.07.24.11.32.12.25.05.49,0,.7-.17.15-.12.27-.29.35-.5.08-.22.1-.4.05-.54.02.06.04.12.06.17.03.13.05.25.05.37,0,.02-.01.1-.04.23l-.04.2c.06-.01.12-.02.18-.03.23-.03.44-.02.62.03.11.03.19.07.23.13l1.52,1.96-.51,1.18-1.73-2.24c-.12-.16-.35-.19-.69-.11-.09.02-.21.07-.36.15-.03.02-.1.06-.21.12-.03.02,0,.07.05.15.14.18.48.38,1.01.57.11.04.21.11.29.21.16.2.23.51.22.93,0,.36-.05.71-.14,1.04-.04.11-.09.27-.15.49-.03.02-.18.05-.45.09-.9.13-1.51,0-1.82-.4-.11-.15-.17-.43-.18-.85,0-.42-.06-.68-.16-.81-.12-.16-.3-.2-.52-.13-.05.02-.13.05-.23.09l.19-1Z"/><path class="c" d="m53.5,57.93c.06-.06.12-.19.16-.37.01-.06.03-.15.05-.27,0,.18,0,.33-.02.44-.04.34-.12.58-.25.74-.02.03-.05.06-.09.1-.17.17-.4.31-.71.44-.13.04-.27.08-.41.12,0-.09,0-.22,0-.41.02-.28.08-.6.17-.94.14-.49.35-.87.63-1.15.42-.41,1.02-.7,1.8-.87.09-.02.22-.04.4-.07l-.07,1c-.12-.04-.22-.07-.3-.07-.26-.02-.57.04-.9.19-.49.21-.86.44-1.1.68-.16.16-.3.34-.4.52-.03.07-.07.14-.1.22.13.01.25.02.37.04.32-.06.57-.18.74-.35Z"/><path class="c" d="m59.32,52.65l3.05,2.46-.18,1.31-2.94-2.37-1.72,2.13c.09.09.21.19.36.31.18.11.46.11.83.02.16-.07.32-.13.48-.2-.01-.02-.02-.05-.04-.07-.04-.07-.08-.12-.13-.16-.11-.09-.27-.08-.49.03-.02.01-.05.03-.09.05l-.12-.86c.12-.07.21-.12.27-.14.2-.08.36-.07.47.02.06.05.11.12.14.2.09.26.13.57.12.92-.03.59,0,.93.12,1.01.26.21.54.25.85.12.1-.04.23-.13.39-.25l.22.85c-.08.06-.16.11-.24.17-.39.19-.71.24-.98.16-.08-.03-.15-.06-.2-.1-.12-.1-.2-.25-.24-.45,0-.18,0-.37,0-.55-.62.28-1.08.3-1.39.05-.43-.34-.61-.93-.56-1.75.02-.26.04-.42.08-.46l1.95-2.42Z"/><path class="c" d="m64.63,52.58s-.16.08-.34.14c-.7.25-1.27.27-1.7.06-.64-.31-1.02-.89-1.16-1.74-.04-.25-.06-.39-.04-.42l-.71,1.44-.44-.97,1.78-3.65,3.52,1.72.09,1.37c-.08.02-.33.04-.77.05l-1.39.04c-.36,0-.78.08-1.25.21-.19.09-.39.17-.58.25.06.08.11.15.17.22.17.15.36.28.57.38.24.12.46.17.67.17.38-.01.68-.08.91-.2.14-.07.27-.19.38-.37l.3,1.28Zm-2.97-2.53l.48-.12c.22-.05.38-.09.46-.11.05,0,.32-.05.81-.14.1-.02.25-.05.43-.08l-1.58-.77-.6,1.22Z"/><path class="c" d="m8.5,21.51c.04-.06.14-.13.3-.22.16-.09.25-.13.26-.11l.17,1.01s-.08,0-.14.02c-.11.02-.19.05-.24.09-.04.03-.13.12-.26.29-.05.07,0,.15.14.24.17.1.35.15.52.13.28-.02.49-.04.62-.06.53-.09,1.02-.29,1.46-.59.09-.08.17-.15.26-.24l-2.6-1.54-1.48,2.49-.35-1,1.73-2.91,3.13,1.86-.12,1.99s0,.03-.01.05c-.05.08-.23.21-.53.36-.38.2-.76.33-1.15.41-.47.1-.84.07-1.1-.09-.26-.16-.48-.44-.66-.84-.21-.47-.23-.87-.03-1.19.04-.06.07-.11.09-.13Z"/><path class="c" d="m11.49,17.07c.11-.06.2-.09.27-.11.21-.06.38-.03.51.07.22.18.25.67.09,1.46-.05.26-.03.44.07.52.21.17.43.23.68.17.21-.11.41-.23.61-.34l.12.96c.01.05-.12.15-.39.28-.31.15-.57.19-.8.13-.07-.02-.14-.05-.2-.11-.15-.12-.24-.34-.26-.66,0-.14,0-.29,0-.44-.63.3-1.09.32-1.4.07-.47-.38-.58-1.08-.34-2.07.08-.34.16-.53.23-.56.13-.02.25-.03.36-.05.27-.05.46-.14.56-.27.12-.14.18-.35.18-.62,0-.08,0-.19-.03-.37.16-.1.26-.17.32-.2.24-.14.43-.21.57-.21.17.02.34.1.5.23l2.26,1.86-.21,1.32-2.78-2.29c-.1-.09-.3-.02-.59.2-.03.13-.05.25-.08.37-.09.3-.21.51-.34.64-.11.11-.3.21-.57.31-.1.04-.21.07-.36.11.02.11.04.2.06.27.06.2.14.34.24.42.03.02.05.04.06.04.16.08.44.07.85-.04.04-.01.24-.08.59-.19,0-.01-.01-.03-.02-.04-.02-.03-.05-.06-.09-.09-.16-.13-.33-.13-.54,0-.03.02-.07.05-.12.08l-.03-.87Z"/><path class="c" d="m15.63,18.81c-.21-.21-.17-.45.12-.74.29-.3.54-.35.76-.13.21.21.17.45-.11.75-.29.3-.55.34-.76.13Z"/><path class="c" d="m15.44,13.14c.12-.04.21-.06.28-.06.21-.02.38.04.48.16.19.22.13.7-.16,1.45-.1.25-.1.43-.02.53.17.21.39.3.64.29.22-.08.44-.15.66-.23l-.05.96c0,.05-.14.12-.43.21-.33.09-.6.09-.81,0-.07-.03-.13-.08-.18-.14-.13-.15-.18-.38-.15-.69.03-.14.05-.29.08-.43-.67.18-1.13.12-1.39-.18-.4-.46-.39-1.16.03-2.1.14-.33.25-.5.33-.51.13,0,.25.01.36.01.27,0,.47-.05.6-.17.14-.12.24-.31.28-.58.01-.07.03-.19.03-.37.17-.07.29-.12.35-.14.26-.09.46-.13.59-.1.17.05.32.16.45.31l1.91,2.23-.43,1.26-2.34-2.73c-.09-.1-.29-.07-.62.09-.05.12-.1.24-.15.35-.14.28-.29.47-.44.57-.12.09-.33.16-.61.21-.1.02-.22.03-.37.05,0,.11,0,.2.01.28.03.2.08.36.16.45.02.02.04.04.05.05.14.11.42.15.85.11.04,0,.25-.03.61-.08,0-.02,0-.03,0-.04-.02-.04-.04-.07-.07-.11-.13-.15-.31-.19-.53-.1-.04.02-.08.04-.13.06l.12-.86Z"/><path class="c" d="m19.82,9.71l-1.76,1.08.31-1.14,2.03-1.24,2.03,3.3-.64,1.19-1.95-3.18Z"/><path class="c" d="m21.86,8.39l.47-.91c.14.01.27.03.41.04.29.07.47.18.53.33l.02.04c.05.18,0,.57-.16,1.18-.07.27-.07.48,0,.64.02.04.03.08.05.11.16.26.42.44.77.54.47.14.82.16,1.05.06.07-.01.16-.11.29-.3.13-.18.19-.28.17-.32l-1.04-2.47.81-1.09,1.2,2.86-.64.46c.06,0,.15-.02.25-.04.25-.03.5,0,.71.12.11.06.17.1.16.11l-.46.9c-.4-.35-.77-.45-1.12-.31-.2.08-.34.28-.45.6-.08.27-.12.41-.12.42-.03.01-.19.01-.46,0-.91-.04-1.47-.29-1.66-.74-.08-.19-.08-.43,0-.72.18-.62.24-1,.19-1.13,0-.02-.01-.04-.02-.07-.02-.02-.02-.03-.01-.04-.08-.19-.27-.3-.56-.32-.09,0-.23,0-.41.03Z"/><path class="c" d="m23.21,6.08c-.11-.05-.17-.1-.19-.16,0-.02,0-.05.01-.08l.68-.95c.09-.12.3-.24.64-.34.05-.01.1-.03.16-.04.11-.04.26-.05.44-.03.2.02.32.06.34.14.01.04,0,.07-.02.11l-.66,1.07c-.07.12-.26.22-.57.32-.11.04-.2.06-.27.07-.15.03-.34,0-.56-.1Zm.31-.67c.03.09.08.15.15.17.12.04.3.05.53.01.07-.01.13-.02.18-.04.16-.05.28-.14.35-.25.02-.03.04-.09.06-.15,0-.02,0-.04,0-.06-.04-.13-.19-.16-.46-.11-.14.04-.22.06-.27.07-.22.07-.39.16-.5.27-.01.03-.03.05-.05.08Z"/><path class="c" d="m37.19,4.67c.07,0,.18.06.34.16.16.1.23.16.22.17l-.8.63s-.05-.07-.08-.11c-.07-.09-.13-.15-.2-.17-.04-.02-.16-.05-.38-.09-.09-.01-.13.06-.14.23,0,.2.03.37.12.52.15.23.26.41.35.52.33.42.74.76,1.21,1.01.11.04.22.08.33.12l.14-3.02-2.89-.13.72-.78,3.38.16-.17,3.64-1.81.83s-.03.01-.05,0c-.09,0-.29-.1-.57-.29-.35-.24-.65-.51-.91-.82-.31-.37-.46-.71-.44-1.01.02-.3.16-.63.43-.98.32-.41.66-.61,1.04-.59.07,0,.13,0,.16.02Z"/><path class="c" d="m38.31,8.5s.08.02.13.04c.29.09.49.22.59.38.05.07.07.13.07.17l-.09.69-1.12.44.11-.88c0-.07,0-.14-.05-.21-.04-.05-.14-.09-.29-.11-.07,0-.12-.01-.18-.01l.83-.49Z"/><path class="c" d="m42.29,4.43c.13.11.22.2.27.27.17.22.23.43.18.64v.07s-.04.05-.05.07c-.06.12-.26.3-.57.52-.3.21-.46.38-.5.52-.02.1-.02.2,0,.3.15.57.41,1.02.78,1.35.24.22.49.36.75.42.06.02.1.02.11.01l1.03-4.18,1.3-.37-1.15,4.66-2.03.43c-.08.02-.28-.07-.59-.27-.93-.59-1.31-1.23-1.13-1.93.05-.19.18-.36.39-.53.47-.36.73-.61.76-.74,0-.03.01-.06.02-.09.01-.15-.06-.29-.22-.44-.05-.05-.14-.11-.26-.18l.91-.52Z"/><path class="c" d="m46.71,6.57c-.09-.05-.16-.09-.21-.11l.8-.35c.16.1.27.18.33.22.43.32.56.69.38,1.11l-.56,1.33s.16.16.37.36c.22.2.44.45.68.77.06.09.12.17.18.25l.97-2.31,1.33-.19-1.49,3.57-1.33.18c-.02-.24-.09-.59-.2-1.04-.07-.17-.21-.38-.44-.64-.07-.08-.17-.19-.32-.34l-.32.76-1.35.17c0-.06.02-.13.02-.23.03-.34.01-.62-.03-.84-.03-.12-.09-.28-.2-.49-.04-.1-.09-.19-.15-.29.08-.03.15-.06.21-.08.15-.04.29-.07.4-.09.19-.02.36-.03.5-.01.01,0,.05,0,.1.01l.54-1.29c.07-.17,0-.31-.23-.43Zm-.45,2.03s-.05-.04-.12-.07c-.14-.06-.25-.09-.33-.11,0,.01,0,.03,0,.04.06.05.13.15.2.31.02.05.05.12.09.23l.16-.39Z"/><path class="c" d="m49.7,6.1c-.04-.11-.05-.19-.02-.25,0-.02.03-.04.07-.04l1.15-.16c.15-.02.38.06.69.23.04.02.09.05.14.08.11.06.21.16.33.29.13.16.17.27.13.34-.02.03-.05.05-.09.06l-1.23.26c-.13.03-.34-.04-.63-.19-.1-.05-.18-.1-.23-.15-.13-.09-.23-.25-.31-.47Zm.69-.24c-.05.08-.06.16-.03.23.06.12.17.25.36.4.06.04.11.08.16.1.15.08.29.11.42.08.04,0,.09-.03.15-.06.02-.01.03-.03.04-.04.06-.12-.02-.25-.24-.4-.12-.08-.2-.13-.24-.15-.2-.11-.38-.17-.53-.17-.03,0-.06.02-.09.02Z"/><path class="c" d="m54.98,16.27l2.41-2.22c.12-.11.17-.23.15-.35-.02-.09-.07-.21-.15-.36-.02-.04-.06-.11-.12-.2l1.04.05,2.38,2.58-2.84,2.62-1.29-.4,2.74-2.53-1.03-1.12.03.47-2.03,1.88-1.29-.4Z"/><path class="c" d="m59.09,20.19c.02.06.05.15.1.24.02.03.04.07.08.14l-.95-.31c-.11-.03-.19-.24-.22-.62-.03-.3,0-.49.12-.57l2.65-1.9,1.23.56-2.91,2.08c-.11.08-.14.2-.1.37Z"/><path class="c" d="m59.74,21.29l1.01.37c-.37.32-.43.69-.19,1.13.14.25.3.39.47.42.12.02.26-.01.4-.09.35-.2.63-.54.82-1.05.33-.84.36-1.63.11-2.38-.03-.07-.07-.18-.12-.33l1.08.27,1.68,3.03-1.1-.32-.5-.9s-.03.16-.09.35c-.21.7-.54,1.18-.98,1.42-.16.09-.31.15-.44.17-.6.12-1.28-.1-2.03-.66-.04-.04-.07-.08-.09-.12-.11-.2-.15-.48-.13-.84.02-.34.06-.5.1-.48Z"/><path class="c" d="m36.41,72.82C16.33,72.82,0,56.48,0,36.41S16.33,0,36.41,0s36.41,16.33,36.41,36.41-16.33,36.41-36.41,36.41Zm0-71.45C17.09,1.37,1.37,17.09,1.37,36.41s15.72,35.04,35.04,35.04,35.04-15.72,35.04-35.04S55.73,1.37,36.41,1.37Z"/><path class="c" d="m36.41,71.14C17.26,71.14,1.67,55.56,1.67,36.41S17.26,1.67,36.41,1.67s34.74,15.58,34.74,34.73-15.58,34.74-34.74,34.74Zm0-69.11C17.45,2.04,2.04,17.45,2.04,36.41s15.42,34.37,34.37,34.37,34.38-15.42,34.38-34.37S55.36,2.04,36.41,2.04Z"/><path class="c" d="m36.06,62.14c-14.29,0-25.92-11.63-25.92-25.92s11.62-25.92,25.92-25.92,25.92,11.63,25.92,25.92-11.63,25.92-25.92,25.92Zm0-51.47c-14.09,0-25.56,11.47-25.56,25.56s11.46,25.56,25.56,25.56,25.56-11.46,25.56-25.56-11.46-25.56-25.56-25.56Z"/><path class="c" d="m6.01,37.04c-.45,0-.82-.37-.82-.82s.37-.82.82-.82.82.37.82.82-.37.82-.82.82Zm0-1.53c-.39,0-.7.32-.7.71s.32.71.7.71.71-.32.71-.71-.32-.71-.71-.71Z"/><path class="c" d="m7.62,35.25c-.37-.26-.84.1-.84.1h-.01s-.02-.02-.02-.02c.39-.42-.05-1.26-.05-1.26-.25-.39-.6-1.32-.6-1.32-.06.36-.75,1.35-.75,1.35-.48.81-.04,1.21-.04,1.21.01,0,.02,0,.03,0-.01.01-.03.03-.05.04-.12-.07-.55-.31-.87-.09,0,0-.84.85-1.18.97,0,0,.35.18.84.59,0,0,.61.7,1.15.23,0,0,.01.01.02.02-.05.06-.34.49.1,1.23,0,0,.69.99.75,1.35,0,0,.34-.93.6-1.32,0,0,.51-.86.12-1.28,0,0,0,0,0,0,.54.47,1.15-.23,1.15-.23.5-.41.84-.59.84-.59-.34-.11-1.18-.97-1.18-.97Zm-1.61,1.99c-.57,0-1.03-.46-1.03-1.03s.46-1.03,1.03-1.03,1.03.46,1.03,1.03-.46,1.03-1.03,1.03Z"/><path class="c" d="m66.48,37.04c-.45,0-.82-.37-.82-.82s.37-.82.82-.82.82.37.82.82-.37.82-.82.82Zm0-1.53c-.39,0-.71.32-.71.71s.32.71.71.71.71-.32.71-.71-.32-.71-.71-.71Z"/><path class="c" d="m68.09,35.25c-.37-.26-.84.1-.84.1h-.01s-.01-.02-.02-.02c.39-.42-.05-1.26-.05-1.26-.26-.39-.6-1.32-.6-1.32-.06.36-.75,1.35-.75,1.35-.48.81-.04,1.21-.04,1.21,0,0,.02,0,.02,0-.01.01-.03.03-.05.04-.12-.07-.55-.31-.87-.09,0,0-.84.85-1.18.97,0,0,.35.18.84.59,0,0,.61.7,1.15.23,0,0,.02.01.02.02-.05.06-.34.49.1,1.23,0,0,.69.99.75,1.35,0,0,.34-.93.6-1.32,0,0,.51-.86.12-1.28,0,0,0,0,0,0,.54.47,1.15-.23,1.15-.23.5-.41.84-.59.84-.59-.34-.11-1.18-.97-1.18-.97Zm-1.61,1.99c-.57,0-1.03-.46-1.03-1.03s.46-1.03,1.03-1.03,1.03.46,1.03,1.03-.46,1.03-1.03,1.03Z"/><path class="c" d="m36.06,61.34c-13.85,0-25.11-11.26-25.11-25.11s11.27-25.11,25.11-25.11,25.11,11.26,25.11,25.11-11.26,25.11-25.11,25.11Zm0-49.07c-13.21,0-23.96,10.75-23.96,23.96s10.75,23.96,23.96,23.96,23.96-10.75,23.96-23.96-10.75-23.96-23.96-23.96Z"/><path class="d" d="m30.43,50.31s-1.26.34-1.41,2.19c0,0-.03,1.85,1.5,2.92,0,0,1.06.78,1.89.69,0,0,.89.18,1.67-1.72,0,0,.43-1.38.42-2.55l.25.3s-.07,2.64-1.23,3.77c0,0-.62,1.14-2.41.21,0,0-2.19-.86-2.27-3.55,0,0,.02-2.01,1.64-2.49,0,0,.03.15-.04.24Z"/><path class="d" d="m41.96,44.59s-2.21.12-2.76,2.31c0,0-.29.93.18,2.22,0,0,.42,1.33.03,2.14,0,0,1.27-.34,1.43-1.78,0,0,.17-.57-.06-2.29,0,0-.03-1.45,1.29-1.94l-.12-.65Z"/><path class="d" d="m45.77,46.15l-.44-.65s.69-.63.54-1.61c0,0-.1-.72-.7-.7,0,0-.87.07-.51,1.15,0,0-1.27-.18-1.35-1.53,0,0,.03-.79.52-1.06,0,0,.55-.42.98-.13,0,0-.25-.96.97-2.15,0,0,.78-.96,1.6-1.12,0,0-.44.25-.66.91,0,0-.17.41-.04,1.41,0,0,.12.99-.46,1.46,0,0,.08.15.42-.3,0,0,.22-.36.52-.27,0,0-.38.04-.25.95,0,0,.33,1.03-.03,2.06,0,0-.41.93-1.09,1.6Z"/><path class="d" d="m44.69,38.15s.74-2.22-.36-4.51c0,0,.11.91-.34,1.59,0,0-.63.87-.64,1.28,0,0,0-.41-.48-.69,0,0,.18.42-.15.63,0,0-.46.64-.45,1.06,0,0-.01.58.27.85,0,0,.03-.63.48-.61,0,0,.51.04.48.84,0,0-.16.96-.63,1.66,0,0-.08-.64-.57-1.15,0,0-.63-.45-1.17-.18,0,0,0-1.42.33-2.49,0,0,.38-1.16,1.28-1.22,0,0,.45.08.58.51,0,0,0-.26.3-.79,0,0,.8-1.27-.4-4.29,0,0,.1,1.04-.25,1.73,0,0-.42.82-.21,1.22,0,0,.15.4-.22.63,0,0,.07-.36-.24-.78,0,0,.09.39-.06.49,0,0-.63.66-.75,1.07,0,0-.9-1.15-3.55-1.47l.14.42s1.08.09,1.83.68c0,0,.27.45.12.88,0,0,.65.29.74,1.04,0,0,.04,1.07.04,1.94,0,0,.09,1.65-.54,2.32,0,0-.13.15-.33.21,0,0-.27.09-.18.3,0,0,.08.32.39.19,0,0,.52-.24.85-1.2,0,0,.2-.6.17-1.05,0,0,.56-.34.99.29,0,0,.36.65.24,1.39,0,0-.16,1.14-.3,1.82,0,0-.34,1.34,0,2.64,0,0,.25,1.2,1.42,1.46,0,0,.46.17.88-.06,0,0-.01-.29-.28-.52,0,0-1.37.28-1.6-1.2,0,0-.46-1.77.62-3.73,0,0,1.18-1.87,1.58-3.18Zm-3.72-2.22s-.17-.46-.54-.72c0,0,.05-.34-.07-.55,0,0,.55.25.87.67,0,0-.26.39-.26.6Z"/><path class="d" d="m26.17,46.06l.55-.64s-.66-.56-.51-1.54c0,0,.1-.72.7-.7,0,0,.87.07.5,1.15,0,0,1.27-.18,1.35-1.53,0,0-.03-.79-.52-1.06,0,0-.55-.42-.98-.13,0,0,.25-.96-.97-2.15,0,0-.77-.96-1.6-1.12,0,0,.44.25.66.91,0,0,.17.41.04,1.41,0,0-.12.99.46,1.46,0,0-.08.15-.42-.3,0,0-.23-.36-.52-.27,0,0,.38.04.25.95,0,0-.33,1.03.04,2.06,0,0,.27.84.95,1.52Z"/><path class="d" d="m28.97,41.33c1.08,1.97.62,3.73.62,3.73-.22,1.48-1.56,1.24-1.56,1.24-.27.23-.32.49-.32.49.42.22.88.06.88.06,1.17-.26,1.42-1.46,1.42-1.46.34-1.29,0-2.64,0-2.64-.13-.67-.3-1.82-.3-1.82-.12-.75.24-1.39.24-1.39.44-.63.99-.29.99-.29-.03.45.17,1.05.17,1.05.33.96.86,1.2.86,1.2.31.12.39-.19.39-.19.09-.21-.18-.3-.18-.3-.19-.06-.33-.21-.33-.21-.63-.68-.54-2.32-.54-2.32,0-.87.04-1.94.04-1.94.09-.75.73-1.04.73-1.04-.15-.43.12-.88.12-.88.75-.58,1.9-.68,1.9-.68l.13-.42c-2.65.32-3.63,1.47-3.63,1.47-.12-.4-.75-1.07-.75-1.07-.15-.1-.06-.49-.06-.49-.32.42-.24.78-.24.78-.37-.22-.22-.63-.22-.63.21-.39-.21-1.22-.21-1.22-.36-.69-.25-1.73-.25-1.73-1.2,3.02-.4,4.29-.4,4.29.29.53.3.79.3.79.14-.43.58-.51.58-.51.9.06,1.28,1.22,1.28,1.22.34,1.07.33,2.49.33,2.49-.54-.27-1.17.18-1.17.18-.5.51-.57,1.15-.57,1.15-.46-.7-.63-1.66-.63-1.66-.03-.8.48-.84.48-.84.45-.02.48.61.48.61.29-.27.27-.85.27-.85.01-.42-.45-1.06-.45-1.06-.33-.21-.15-.63-.15-.63-.48.29-.48.69-.48.69-.01-.41-.64-1.28-.64-1.28-.45-.67-.34-1.59-.34-1.59-1.1,2.29-.36,4.51-.36,4.51.39,1.31,1.58,3.18,1.58,3.18Zm1.89-6c.31-.43.87-.67.87-.67-.11.21-.07.55-.07.55-.37.26-.54.72-.54.72,0-.2-.26-.6-.26-.6Z"/><path class="d" d="m36.51,13.67c0,.23-.19.42-.42.42s-.42-.19-.42-.42.19-.42.42-.42.42.19.42.42Z"/><path class="d" d="m36.09,14.27s.5,2.59.63,3.49c0,0-.44.39-.65.63,0,0-.42-.46-.7-.58,0,0,.24-1.34.72-3.54Z"/><path class="d" d="m29.17,51.65s1.29.02,1.77-1.33c0,0,.21-.69-.3-1.32,0,0-.52-.53-1.2-.34,0,0,.46-.78,1.26-.62,0,0,.95.16,1.24,1.37,0,0,.21,1.25-.46,1.97,0,0-.91,1.32-2.47,1.09l.18-.83Z"/><path class="d" d="m42.17,45.68s-.79.35-.8,1.6c0,0,.07.72.13,1.25,0,0,.15,1.14-.32,1.86,0,0-.44.73-1.29,1.18,0,0-.83.41-1.32.51,0,0,.18-.4.3-.78,0,0,.28-.72-.03-1.82,0,0-.12-.44-.23-1.01,0,0-.39-1.27.33-2.53,0,0,.84-1.69,2.97-1.79v.24s-1.49,0-2.63,1.43c0,0-.59.96-.5,2,0,0,.16.92.29,1.54,0,0,.38,1.67-.11,2.33,0,0,1.05-.16,1.92-1.28,0,0,.54-.73.4-1.79,0,0-.17-.94-.13-1.55,0,0,.15-1.21.99-1.6l.03.22Z"/><path class="d" d="m29.27,51.41s.99-.06,1.36-1.08c0,0,.29-.9-.46-1.33,0,0-.6-.24-1.06-.05,0,0,.08-1.05,1.27-1.19,0,0,1.32-.01,1.77,1.3,0,0,.34.94-.13,2.02,0,0-.87,1.79-3.02,1.61l.02.2s1.69.27,2.82-1.14c0,0,1.06-1.09.5-2.87,0,0-.62-1.41-1.98-1.29,0,0-1.46,0-1.47,1.67,0,0,.87-.42,1.32.06,0,0,.6.53.03,1.34,0,0-.53.55-.89.54l-.07.2Z"/><path class="d" d="m28.28,50.97s-.99-.61-1.16-2.23c0,0-.16-1.68,1.63-2.72,0,0,1.73-.87,3.23.09,0,0,1.29.73,2.03,2.22,0,0,.34.54.5,1.91l.28.27s-.03-1.67-1.1-3.04c0,0-1.06-1.69-2.91-2.01,0,0-1.28-.2-2.34.45,0,0-1.27.7-1.52,2.34,0,0-.28,1.67,1.27,2.94l.1-.21Z"/><path class="d" d="m30.5,49.95s-1.4.17-1.78,1.99c0,0-.3,1.32.51,2.73,0,0,.87,1.59,2.66,2.02,0,0,1.05.23,1.6-.37,0,0,1.07-.75,1.41-2.82,0,0,.18-.81.13-1.11,0,0,1.02,1.35,1.25,1.93,0,0-.13,1.41-1.25,2.97,0,0-.94,1.38-2.43.88,0,0-2.04-.49-3.64-2.85,0,0-.9-1.36-.75-2.77,0,0-.04-1.38,1.05-2.34,0,0,.7-.59,1.2-.6l.05.33Z"/><path class="d" d="m32.41,49.22s1.21.15,2.52,1.34c0,0,1.48,1.36,2.29,2.26,0,0,1.37,1.56,1.73,1.91,0,0,.5.53.75.53,0,0,.24.15,1.71-1.26,0,0,1.39-1.29,2.23-3.19,0,0,.86-1.59.89-2.96,0,0,.06-1.4-.75-1.89,0,0-.55-.42-1.17-.42l-.09-.15s.54-.17,1.47.51c0,0,.75.65.73,1.8,0,0,.07,1.31-1,3.44,0,0-.9,1.71-1.76,2.62,0,0-1.59,1.84-2.26,1.8,0,0-.2.02-.59-.26,0,0-.18-.2-1.61-1.88,0,0-1.01-1.25-1.9-2.07,0,0-1.46-1.27-1.9-1.44,0,0-.91-.55-1.3-.5v-.19Z"/><path class="d" d="m42.4,44.57s1.47-.05,2.37,1.06c0,0,.9.91.91,2.63,0,0,.02,1.5-.66,3.16,0,0-.73,1.88-1.62,2.94,0,0-1.4,1.83-2.2,2.51,0,0-1,.89-1.46,1.07,0,0-.51.31-1.23-.48,0,0-.35-.33-.8-1.43,0,0-.89-1.78-1.88-3.26,0,0-1.65-2.17-3.38-2.58l.06-.55s1.24.18,2.68,1.62c0,0,1.14.99,2.04,2.2,0,0,.95,1.25,1.33,1.7,0,0,.55.67,1.01.69,0,0,.6.17,1.73-.94,0,0,1.46-1.3,2.33-2.91,0,0,.94-1.42,1.28-3.23,0,0,.41-1.46-.34-2.58,0,0-.49-.9-2.08-1.04l-.08-.57Z"/><path class="d" d="m42.33,44.13s1.27-.07,2.43.87c0,0,.96.79,1.18,1.79,0,0,.43.99.15,2.73,0,0-.29,1.99-1.42,3.81,0,0-1.06,1.8-1.75,2.58,0,0-1.01,1.18-2,1.95,0,0-.88.79-1.44.72,0,0-.98.11-1.84-1.42,0,0-.61-1.24-.94-1.96,0,0-.8-1.6-1.75-2.81,0,0-.84-1.25-2.52-1.83v-.2s1.23.31,2.39,1.54c1.11,1.25.99,1.34,1.6,2.29,0,0,.63,1.09.91,1.77,0,0,.35.67.6,1.11,0,0,.47.84,1.05,1.1,0,0,.49.33,1.16-.04,0,0,.99-.58,2.4-2.12,0,0,.98-1.08,2.1-3.02,0,0,.76-1.36,1.16-3.13,0,0,.52-1.69-.12-3.27,0,0-.43-1.1-1.32-1.68,0,0-.99-.61-1.99-.59v-.21Z"/><path class="d" d="m30.36,49.44s-1.37.33-1.96,1.57c0,0-.69,1.18-.24,2.96,0,0,.5,1.6,1.74,2.8,0,0,1.6,1.61,3.48,1.71,0,0,.99-.06,1.63-.8,0,0,.89-.9,1.47-2.83l.13.18s-.37,1.33-1.44,2.69c0,0-.63.95-1.87.91,0,0-.98.08-2.37-.88,0,0-1.76-.98-2.62-3.02,0,0-.59-1.1-.46-2.29,0,0,.1-1.62,1.21-2.47,0,0,.56-.51,1.25-.65l.05.12Z"/><path class="d" d="m35.1,50.75s.09-1.7-1.39-3.75c0,0-.75-1.07-2.21-1.62,0,0-1.24-.44-2.38-.09,0,0-1.22.25-2.07,1.63,0,0-.65,1.17-.33,2.48,0,0,.28,1.28,1.4,1.98l-.18.74s-1.32-.52-1.79-2.1c0,0-.63-1.67.1-3.22,0,0,1.04-2.14,3.25-2.26,0,0,1.39-.46,3.54,1.07,0,0,1.43.95,2.32,2.51,0,0,1.35,2.35,1.16,3.97l-1.39-1.34Z"/><path class="d" d="m27.93,52.32s-1.52-.45-2.12-2.55c0,0-.53-1.37.1-2.94,0,0,.7-1.83,2.54-2.33,0,0,1.92-.65,3.47.18,0,0,1.69.76,3.05,2.42,0,0,.91,1.03,1.64,3.12,0,0,.38,1.42.3,2.39l.22.23s.26-2.61-1.68-5.34c0,0-1.21-2.16-3.94-3.16,0,0-1.44-.63-3.36,0,0,0-2.3.72-2.75,3.41,0,0-.34,1.71.72,3.33,0,0,.77,1.27,1.78,1.45l.03-.2Z"/><path class="d" d="m36.06,19.05s.04-.36.69-.72c0,0,.31-.15.43-.38,0,0,.18.95-.33,1.42,0,0-.49.52-.77,1.08l-.02-1.39Z"/><path class="d" d="m36.07,19.05s-.03-.36-.68-.72c0,0-.31-.15-.43-.38,0,0-.18.95.33,1.42,0,0,.51.52.79,1.08v-1.39Z"/><path class="d" d="m34.42,20.43h1.26s-.28-.64-.94-1.17c0,0,.2.64-.32,1.17Z"/><path class="d" d="m37.76,20.43h-1.26s.28-.64.94-1.17c0,0-.2.64.32,1.17Z"/><path class="e" d="m38.03,20.77h-3.93c-.28,0-.51.23-.51.51s.23.51.51.51h3.93c.28,0,.51-.23.51-.51s-.23-.51-.51-.51Zm-3.86.74s-.53-.25.02-.54l.74.02s-.26.34.06.52h-.82Zm2.44.01h-1.09c-.15,0-.28-.12-.28-.28s.12-.28.28-.28h1.09c.15,0,.27.12.27.28s-.12.28-.27.28Zm1.34-.01h-.82c.32-.18.06-.52.06-.52l.74-.02c.55.29.02.54.02.54Z"/><path class="d" d="m34.06,21.98h1.72s-.65.78-.92,1.26c0,0-.08-.35-.23-.56,0,0-.52-.59-.56-.7Z"/><path class="d" d="m37.97,22.01l-1.72-.07s.62.8.88,1.29c0,0,.09-.35.26-.55,0,0,.54-.56.59-.67Z"/><path class="d" d="m35.5,43.17h.95s.08.16-.06.2v.37s-.07.13-.14.13h-.59s-.1-.06-.09-.16v-.37s-.15-.03-.07-.17Z"/><path class="d" d="m35.68,43.98h.57l.02.15s.19.11.08.41c0,0-.32.72-.37.78,0,0-.34-.62-.42-.96,0,0-.01-.15.11-.24l.02-.14Z"/><rect class="d" x="35.61" y="40.72" width=".79" height=".51"/><path class="d" d="m34.21,38.84s-.35.47-.2,1.46c0,0,.12.91,1.17,1.41,0,0,1.25.55,2.2-.34,0,0,1.21-1.01.48-2.45,0,0,.42-.55.18-1.62,0,0,.28.28.28.81,0,0,.16-.24.1-.55,0,0,.38.26.37.83,0,0-.02.34-.57.79,0,0-.11.42.18.29,0,0,.68-.5.67-1,0,0,.48.65.24,1.13,0,0-.23.47-.38.56,0,0,.29.01.39-.29,0,0,.2.85-.86.99,0,0-.33.08-.47.01,0,0-.2.2-.02.26,0,0,.55.26,1.17-.17,0,0-.18.73-.73,1.05,0,0-.26.08-.5.03,0,0,.14.21.42.15,0,0-.32.56-.88.36,0,0-.49-.2-.74-.62,0,0-.3-.06-.24.24,0,0,.17.55.93.62,0,0-.49.42-1.09.29,0,0-.33-.1-.55-.44,0,0,.01.3.15.46,0,0-.44.08-.85-.65,0,0-.11-.27,0-.55,0,0-.06-.3-.3-.07,0,0-.26.36.15,1.08,0,0-1.23-.23-1.05-1.14,0,0-.18.18-.18.45,0,0-.5-.51-.21-1.18,0,0,.21-.44.43-.49,0,0,.01-.29-.17-.24,0,0-.68.33-.71,1.09,0,0-.71-1,.03-1.74,0,0-.33.08-.42.26,0,0,.02-1.02.7-1.08,0,0,.41-.01.53.18,0,0,.21-.17.03-.33,0,0-.48-.44-1,.01,0,0,.15-.88.91-1.03,0,0,.26.09.23.42,0,0-.08.45.18.73Z"/><path class="d" d="m34.27,39.12s-.24.64-.04,1.21c0,0,.23.96,1.35,1.3,0,0,1.12.2,1.77-.58,0,0,.77-.65.42-1.85l-.26.23s.11.69-.27,1.23c0,0-.45.7-1.21.68,0,0-.89.03-1.43-.89,0,0-.21-.61-.09-1.05l-.24-.29Z"/><path class="d" d="m35.68,40.56h.65s.11-.07.12-.19v-.26s.04-.23.43-.42c0,0,.54-.25.72-.5,0,0,.26-.19.3-.71,0,0,.17-.12.03-.17h-.64s.06.46-.44.55c0,0-.45-.02-.52-.35v-.49s.06,0,.11-.04c0,0,.06-.12-.03-.17h-.75s-.1.04-.08.09c0,0-.02.1.1.13v.5s-.07.32-.5.34c0,0-.41-.04-.39-.54h-.7s-.06.12.06.14c0,0,.06.66.69,1.03,0,0,.17.08.34.14,0,0,.37.09.39.46v.33s.01.06.09.12Z"/><path class="d" d="m33.99,37.63l.02-.52s-.32.24-.49.46c0,0,.36-.02.46.06Z"/><path class="d" d="m35.53,37.55s-.26-.4-.73-.71c0,0,.33-.22.65-.22,0,0,.16.4.08.93Z"/><path class="d" d="m37.2,38.17s-.28-.38-.67-.49l-.06-1.17s.81.32.73,1.66Z"/><path class="d" d="m37.3,37.12s.18-.3-.22-.42l.22.42Z"/><path class="d" d="m34.86,38.05s.32-.26.65-.28c0,0-.44-.38-.69-.49l.04.77Z"/><path class="d" d="m35,38.62s.28-.24.57-.34c0,0,.04-.14-.06-.26,0,0-.46.17-.58.36,0,0-.05.2.07.24Z"/><path class="d" d="m36.6,38.02s.36.16.52.38c0,0,.12.23-.15.24,0,0-.23-.26-.4-.33,0,0-.04-.2.04-.29Z"/><path class="d" d="m35.65,37.59h.73s.1-.06,0-.18v-.47s.15-.16,0-.26h-.71s-.14.16.03.25v.46s-.12.11-.06.2Z"/><path class="d" d="m34.11,38.11h.63v-.52h-.66s-.06.12.09.13v.26s-.11.08-.06.13Z"/><path class="d" d="m37.97,38.11h-.63v-.52h.66s.06.12-.09.13v.26s.11.08.06.13Z"/><path class="d" d="m37.44,37.4h.52s.05-.84.15-1.77c0,0,.14-.75-.09-1.26,0,0-.24-.65-.26-.89,0,0-.11.48-.26.77,0,0-.27.61-.15,1.37,0,0,.08,1.51.08,1.78Z"/><path class="d" d="m34.73,37.4h-.52s-.06-.84-.15-1.77c0,0-.14-.75.08-1.26,0,0,.24-.65.26-.89,0,0,.11.48.26.77,0,0,.27.61.15,1.37,0,0-.08,1.51-.08,1.78Z"/><path class="d" d="m35.71,36.5h.66s.19-2.18.21-2.49c0,0,.14-.9.02-1.41,0,0-.35-1.07-.55-1.56,0,0-.34.97-.51,1.56,0,0-.16.34.04,1.4,0,0,.19,2.23.13,2.5Z"/><path class="d" d="m34.97,35.21s.45.14.63.12v.41s-.39.03-.66-.08l.03-.45Z"/><path class="d" d="m36.53,35.34l-.03.39s.61.01.78-.08c0,0-.06-.31-.03-.45,0,0-.36.18-.72.14Z"/><path class="d" d="m38.23,34.94s0,.34-.04.48c0,0,1.15-.42,1.67-.91l-.38-.28s-.57.53-1.25.71Z"/><path class="d" d="m32.54,34.32s.73.42,1.35.58l-.02.44s-1.11-.26-1.66-.79l.34-.24Z"/><path class="d" d="m33.5,24.05s2.87-.16,5.12,0c0,0-.81-1-.6-1.5,0,0-.62.7-.93,1.36,0,0-.84-1.07-1.01-1.69,0,0-.41,1.01-.96,1.66,0,0-.16-.36-1.03-1.25,0,0,.07.85-.59,1.41Z"/><path class="d" d="m39.45,24.87c-.17-.55-.71-.57-.71-.57-1.98-.15-5.57,0-5.57,0-.53.17-.57.65-.57.65.12.45.8.55.8.55,2.04-.16,5.45,0,5.45,0,.69-.13.6-.63.6-.63Zm-6.17.3s-.28-.1-.28-.32c0,0,.03-.21.31-.31,0,0,.33-.02,1.08-.02,0,0-.39.31.06.67h-1.17Zm3.87-.03h-2.26c-.69-.34,0-.66,0-.66l2.26-.02c.74.35,0,.68,0,.68Zm1.68.03h-1.17c.45-.35.06-.66.06-.66.75,0,1.08.02,1.08.02.28.1.32.31.32.31,0,.22-.28.32-.28.32Z"/><path class="d" d="m39.81,27s-4.65-.72-7.39,0c0,0,.75-.94.78-1.51,0,0,.66.57.92,1.18,0,0,.87-.94.97-1.19,0,0,.74.93.99,1.16,0,0,.45-.32,1.08-1.17,0,0,.82,1.01.97,1.26,0,0,.39-.81.79-1.17,0,0,.08.43.91,1.45Z"/><path class="d" d="m31.02,28.71s3.89-1.12,10.49,0c0,0-.92-.88-1.07-1.67,0,0-.62.7-.74,1.33,0,0-.71-1.2-.72-1.38,0,0-.89,1.19-.94,1.24,0,0-.92-1.22-1.04-1.45,0,0-.66,1.1-.99,1.38,0,0-.84-1.1-.94-1.38,0,0-.6,1.1-.74,1.39,0,0-.7-1.02-.97-1.28,0,0-.42,1.16-.65,1.44,0,0-.35-.77-.91-1.34,0,0,0,.8-.78,1.73Z"/><path class="d" d="m29.32,30.67s5.61-2.5,13.51,0c0,0-.89-1.35-.81-1.89,0,0-.74,1.02-.79,1.37,0,0-.63-1.23-.71-1.51,0,0-.6.9-.84,1.17,0,0-.55-.88-.72-1.38,0,0-.86,1.05-.91,1.18,0,0-.84-1.18-.95-1.34,0,0-.75.87-1.09,1.23,0,0-.6-1.02-.84-1.24,0,0-.62,1.06-.76,1.26,0,0-.66-.88-.95-1.14,0,0-.57,1.02-.79,1.33,0,0-.83-.97-.96-1.08,0,0-.49,1.15-.68,1.42,0,0-.33-.84-.87-1.29,0,0-.02.95-.83,1.91Z"/><path class="d" d="m29.39,30.98s5.29-2.66,13.33,0c0,0,.57,1.06-2.46,3.3l-.45-.24s1.11-.69,1.48-1.17c0,0-2.56-.86-4.81-.82l-.07-.22s.77,0,1.02-.53c0,0,.32.73,1.16.81,0,0,.82.11,1.36-.63,0,0,.08.68.84,1,0,0,.82.3,1.14-.41,0,0,.24-.54-.33-.91,0,0-.76-.44-1.67.21,0,0-.15-.78-1.21-.91,0,0-.93,0-1.27.67,0,0-.06-.36-.55-.64,0,0-.85-.35-1.61.03,0,0-.33.15-.5.52,0,0-.19-.37-.78-.51,0,0-.84-.15-1.42.35,0,0-.33.31-.44.57,0,0-.32-.36-.66-.5,0,0-.92-.21-1.44.34,0,0-.57.61.2,1.11,0,0,.51.24,1.47-.25,0,0,.42-.24.45-.59,0,0,.18.39.99.38,0,0,.81.06,1.32-.38,0,0,.24-.21.33-.34,0,0,.36.51.87.63l-.08.17s-2.74-.12-5.07.81c0,0,1.05.99,1.65,1.27l-.48.27s-2.8-1.81-2.31-3.39Z"/><path class="d" d="m35.42,33.84s-.52.02-.76.05l-.14-.37s.51-.11.86-.06l.05.38Z"/><path class="d" d="m36.77,33.49l-.06.37s.5-.02.78.03l.15-.39s-.47-.06-.87-.01Z"/></svg>